<mxfile host="app.diagrams.net" modified="2020-10-23T06:38:17.525Z" agent="5.0 (Macintosh; Intel Mac OS X 10_15_4) AppleWebKit/537.36 (KHTML, like Gecko) Chrome/85.0.4183.121 Safari/537.36" etag="3gofikI-hUIZF5EurqI9" version="13.8.1" type="github">
  <diagram id="JLV33hpUf8fsl6XN7Qbe" name="Page-1">
    <mxGraphModel dx="1298" dy="690" grid="1" gridSize="10" guides="1" tooltips="1" connect="1" arrows="1" fold="1" page="1" pageScale="1" pageWidth="827" pageHeight="1169" math="0" shadow="0">
      <root>
        <mxCell id="0" />
        <mxCell id="1" parent="0" />
        <mxCell id="a_Vj5TsUM9YrMgkX1L0C-3" value="" style="edgeStyle=orthogonalEdgeStyle;rounded=0;orthogonalLoop=1;jettySize=auto;html=1;" edge="1" parent="1" source="a_Vj5TsUM9YrMgkX1L0C-1">
          <mxGeometry relative="1" as="geometry">
            <mxPoint x="230" y="250" as="targetPoint" />
          </mxGeometry>
        </mxCell>
        <mxCell id="a_Vj5TsUM9YrMgkX1L0C-1" value="&lt;font style=&quot;font-size: 15px&quot;&gt;源句&lt;/font&gt;" style="rounded=0;whiteSpace=wrap;html=1;" vertex="1" parent="1">
          <mxGeometry x="70" y="220" width="120" height="60" as="geometry" />
        </mxCell>
        <mxCell id="a_Vj5TsUM9YrMgkX1L0C-4" value="&lt;font style=&quot;font-size: 14px&quot;&gt;Pointer-Generator&lt;/font&gt;" style="rounded=0;whiteSpace=wrap;html=1;" vertex="1" parent="1">
          <mxGeometry x="230" y="220" width="120" height="60" as="geometry" />
        </mxCell>
      </root>
    </mxGraphModel>
  </diagram>
</mxfile>
